<?xml version="1.0" encoding="UTF-8" standalone="no"?>
<!DOCTYPE svg PUBLIC "-//W3C//DTD SVG 1.1//EN"
 "http://www.w3.org/Graphics/SVG/1.1/DTD/svg11.dtd">
<!-- Generated by graphviz version 2.47.3 (20210619.1520)
 -->
<!-- Title: dependencies Pages: 1 -->
<svg width="1870pt" height="247pt"
 viewBox="0.00 0.00 1870.00 246.80" xmlns="http://www.w3.org/2000/svg" xmlns:xlink="http://www.w3.org/1999/xlink">
<g id="graph0" class="graph" transform="scale(1 1) rotate(0) translate(4 242.8)">
<title>dependencies</title>
<polygon fill="white" stroke="transparent" points="-4,4 -4,-242.8 1866,-242.8 1866,4 -4,4"/>
<text text-anchor="middle" x="931" y="-8.2" font-family="sans-serif" font-size="14.00">dependencies</text>
<g id="clust1" class="cluster">
<title>cluster_AppModule</title>
<polygon fill="none" stroke="black" stroke-dasharray="1,5" points="8,-32.8 8,-230.8 1854,-230.8 1854,-32.8 8,-32.8"/>
</g>
<g id="clust2" class="cluster">
<title>cluster_AppModule_declarations</title>
<polygon fill="none" stroke="black" points="168,-40.8 168,-92.8 1846,-92.8 1846,-40.8 168,-40.8"/>
</g>
<g id="clust14" class="cluster">
<title>cluster_AppModule_imports</title>
<polygon fill="none" stroke="black" points="16,-40.8 16,-92.8 160,-92.8 160,-40.8 16,-40.8"/>
</g>
<g id="clust16" class="cluster">
<title>cluster_AppModule_bootstrap</title>
<polygon fill="none" stroke="black" points="851,-170.8 851,-222.8 975,-222.8 975,-170.8 851,-170.8"/>
</g>
<!-- AboutMeComponent -->
<g id="node1" class="node">
<title>AboutMeComponent</title>
<polygon fill="#ffffb3" stroke="black" points="1838.49,-84.8 1703.51,-84.8 1703.51,-48.8 1838.49,-48.8 1838.49,-84.8"/>
<text text-anchor="middle" x="1771" y="-62.6" font-family="Times,serif" font-size="14.00">AboutMeComponent</text>
</g>
<!-- AppModule -->
<g id="node12" class="node">
<title>AppModule</title>
<polygon fill="#8dd3c7" stroke="black" points="954.66,-149.8 951.66,-153.8 930.66,-153.8 927.66,-149.8 871.34,-149.8 871.34,-113.8 954.66,-113.8 954.66,-149.8"/>
<text text-anchor="middle" x="913" y="-127.6" font-family="Times,serif" font-size="14.00">AppModule</text>
</g>
<!-- AboutMeComponent&#45;&gt;AppModule -->
<g id="edge1" class="edge">
<title>AboutMeComponent&#45;&gt;AppModule</title>
<path fill="none" stroke="black" d="M1771,-85.05C1771,-107.82 1771,-143.8 1771,-143.8 1771,-143.8 964.67,-143.8 964.67,-143.8"/>
<polygon fill="black" stroke="black" points="964.67,-140.3 954.67,-143.8 964.67,-147.3 964.67,-140.3"/>
</g>
<!-- AppComponent -->
<g id="node2" class="node">
<title>AppComponent</title>
<polygon fill="#ffffb3" stroke="black" points="1685.94,-84.8 1580.06,-84.8 1580.06,-48.8 1685.94,-48.8 1685.94,-84.8"/>
<text text-anchor="middle" x="1633" y="-62.6" font-family="Times,serif" font-size="14.00">AppComponent</text>
</g>
<!-- AppComponent&#45;&gt;AppModule -->
<g id="edge2" class="edge">
<title>AppComponent&#45;&gt;AppModule</title>
<path fill="none" stroke="black" d="M1633,-85.08C1633,-106.12 1633,-137.8 1633,-137.8 1633,-137.8 964.82,-137.8 964.82,-137.8"/>
<polygon fill="black" stroke="black" points="964.82,-134.3 954.82,-137.8 964.82,-141.3 964.82,-134.3"/>
</g>
<!-- ContactComponent -->
<g id="node3" class="node">
<title>ContactComponent</title>
<polygon fill="#ffffb3" stroke="black" points="1562.38,-84.8 1437.62,-84.8 1437.62,-48.8 1562.38,-48.8 1562.38,-84.8"/>
<text text-anchor="middle" x="1500" y="-62.6" font-family="Times,serif" font-size="14.00">ContactComponent</text>
</g>
<!-- ContactComponent&#45;&gt;AppModule -->
<g id="edge3" class="edge">
<title>ContactComponent&#45;&gt;AppModule</title>
<path fill="none" stroke="black" d="M1500,-84.91C1500,-104.14 1500,-131.8 1500,-131.8 1500,-131.8 964.75,-131.8 964.75,-131.8"/>
<polygon fill="black" stroke="black" points="964.75,-128.3 954.75,-131.8 964.74,-135.3 964.75,-128.3"/>
</g>
<!-- ContactSuccessComponent -->
<g id="node4" class="node">
<title>ContactSuccessComponent</title>
<polygon fill="#ffffb3" stroke="black" points="1419.7,-84.8 1250.3,-84.8 1250.3,-48.8 1419.7,-48.8 1419.7,-84.8"/>
<text text-anchor="middle" x="1335" y="-62.6" font-family="Times,serif" font-size="14.00">ContactSuccessComponent</text>
</g>
<!-- ContactSuccessComponent&#45;&gt;AppModule -->
<g id="edge4" class="edge">
<title>ContactSuccessComponent&#45;&gt;AppModule</title>
<path fill="none" stroke="black" d="M1335,-84.82C1335,-102.17 1335,-125.8 1335,-125.8 1335,-125.8 965.01,-125.8 965.01,-125.8"/>
<polygon fill="black" stroke="black" points="965.01,-122.3 955.01,-125.8 965.01,-129.3 965.01,-122.3"/>
</g>
<!-- DataPrivacyComponent -->
<g id="node5" class="node">
<title>DataPrivacyComponent</title>
<polygon fill="#ffffb3" stroke="black" points="1232.02,-84.8 1081.98,-84.8 1081.98,-48.8 1232.02,-48.8 1232.02,-84.8"/>
<text text-anchor="middle" x="1157" y="-62.6" font-family="Times,serif" font-size="14.00">DataPrivacyComponent</text>
</g>
<!-- DataPrivacyComponent&#45;&gt;AppModule -->
<g id="edge5" class="edge">
<title>DataPrivacyComponent&#45;&gt;AppModule</title>
<path fill="none" stroke="black" d="M1157,-85.04C1157,-100.37 1157,-119.8 1157,-119.8 1157,-119.8 964.67,-119.8 964.67,-119.8"/>
<polygon fill="black" stroke="black" points="964.67,-116.3 954.67,-119.8 964.67,-123.3 964.67,-116.3"/>
</g>
<!-- FirstSectionComponent -->
<g id="node6" class="node">
<title>FirstSectionComponent</title>
<polygon fill="#ffffb3" stroke="black" points="1063.49,-84.8 914.51,-84.8 914.51,-48.8 1063.49,-48.8 1063.49,-84.8"/>
<text text-anchor="middle" x="989" y="-62.6" font-family="Times,serif" font-size="14.00">FirstSectionComponent</text>
</g>
<!-- FirstSectionComponent&#45;&gt;AppModule -->
<g id="edge6" class="edge">
<title>FirstSectionComponent&#45;&gt;AppModule</title>
<path fill="none" stroke="black" d="M934.67,-84.91C934.67,-84.91 934.67,-103.79 934.67,-103.79"/>
<polygon fill="black" stroke="black" points="931.17,-103.79 934.67,-113.79 938.17,-103.79 931.17,-103.79"/>
</g>
<!-- FooterComponent -->
<g id="node7" class="node">
<title>FooterComponent</title>
<polygon fill="#ffffb3" stroke="black" points="896.88,-84.8 779.12,-84.8 779.12,-48.8 896.88,-48.8 896.88,-84.8"/>
<text text-anchor="middle" x="838" y="-62.6" font-family="Times,serif" font-size="14.00">FooterComponent</text>
</g>
<!-- FooterComponent&#45;&gt;AppModule -->
<g id="edge7" class="edge">
<title>FooterComponent&#45;&gt;AppModule</title>
<path fill="none" stroke="black" d="M884.06,-84.91C884.06,-84.91 884.06,-103.79 884.06,-103.79"/>
<polygon fill="black" stroke="black" points="880.56,-103.79 884.06,-113.79 887.56,-103.79 880.56,-103.79"/>
</g>
<!-- LegalNoticeComponent -->
<g id="node8" class="node">
<title>LegalNoticeComponent</title>
<polygon fill="#ffffb3" stroke="black" points="761.02,-84.8 610.98,-84.8 610.98,-48.8 761.02,-48.8 761.02,-84.8"/>
<text text-anchor="middle" x="686" y="-62.6" font-family="Times,serif" font-size="14.00">LegalNoticeComponent</text>
</g>
<!-- LegalNoticeComponent&#45;&gt;AppModule -->
<g id="edge8" class="edge">
<title>LegalNoticeComponent&#45;&gt;AppModule</title>
<path fill="none" stroke="black" d="M686,-85.04C686,-100.37 686,-119.8 686,-119.8 686,-119.8 861.1,-119.8 861.1,-119.8"/>
<polygon fill="black" stroke="black" points="861.1,-123.3 871.1,-119.8 861.1,-116.3 861.1,-123.3"/>
</g>
<!-- MenuComponent -->
<g id="node9" class="node">
<title>MenuComponent</title>
<polygon fill="#ffffb3" stroke="black" points="592.99,-84.8 479.01,-84.8 479.01,-48.8 592.99,-48.8 592.99,-84.8"/>
<text text-anchor="middle" x="536" y="-62.6" font-family="Times,serif" font-size="14.00">MenuComponent</text>
</g>
<!-- MenuComponent&#45;&gt;AppModule -->
<g id="edge9" class="edge">
<title>MenuComponent&#45;&gt;AppModule</title>
<path fill="none" stroke="black" d="M536,-84.82C536,-102.17 536,-125.8 536,-125.8 536,-125.8 861.21,-125.8 861.21,-125.8"/>
<polygon fill="black" stroke="black" points="861.21,-129.3 871.21,-125.8 861.21,-122.3 861.21,-129.3"/>
</g>
<!-- MyWorkComponent -->
<g id="node10" class="node">
<title>MyWorkComponent</title>
<polygon fill="#ffffb3" stroke="black" points="461.15,-84.8 328.85,-84.8 328.85,-48.8 461.15,-48.8 461.15,-84.8"/>
<text text-anchor="middle" x="395" y="-62.6" font-family="Times,serif" font-size="14.00">MyWorkComponent</text>
</g>
<!-- MyWorkComponent&#45;&gt;AppModule -->
<g id="edge10" class="edge">
<title>MyWorkComponent&#45;&gt;AppModule</title>
<path fill="none" stroke="black" d="M395,-84.91C395,-104.14 395,-131.8 395,-131.8 395,-131.8 861.05,-131.8 861.05,-131.8"/>
<polygon fill="black" stroke="black" points="861.05,-135.3 871.05,-131.8 861.05,-128.3 861.05,-135.3"/>
</g>
<!-- StartPageComponent -->
<g id="node11" class="node">
<title>StartPageComponent</title>
<polygon fill="#ffffb3" stroke="black" points="310.48,-84.8 175.52,-84.8 175.52,-48.8 310.48,-48.8 310.48,-84.8"/>
<text text-anchor="middle" x="243" y="-62.6" font-family="Times,serif" font-size="14.00">StartPageComponent</text>
</g>
<!-- StartPageComponent&#45;&gt;AppModule -->
<g id="edge11" class="edge">
<title>StartPageComponent&#45;&gt;AppModule</title>
<path fill="none" stroke="black" d="M243,-85.08C243,-106.12 243,-137.8 243,-137.8 243,-137.8 861.34,-137.8 861.34,-137.8"/>
<polygon fill="black" stroke="black" points="861.34,-141.3 871.34,-137.8 861.34,-134.3 861.34,-141.3"/>
</g>
<!-- AppComponent  -->
<g id="node14" class="node">
<title>AppComponent </title>
<polygon fill="#80b1d3" stroke="black" points="967.44,-214.8 858.56,-214.8 858.56,-178.8 967.44,-178.8 967.44,-214.8"/>
<text text-anchor="middle" x="913" y="-192.6" font-family="Times,serif" font-size="14.00">AppComponent </text>
</g>
<!-- AppModule&#45;&gt;AppComponent  -->
<g id="edge13" class="edge">
<title>AppModule&#45;&gt;AppComponent </title>
<path fill="none" stroke="black" stroke-dasharray="1,5" d="M913,-149.91C913,-149.91 913,-168.79 913,-168.79"/>
<polygon fill="black" stroke="black" points="909.5,-168.79 913,-178.79 916.5,-168.79 909.5,-168.79"/>
</g>
<!-- AppRoutingModule -->
<g id="node13" class="node">
<title>AppRoutingModule</title>
<polygon fill="#8dd3c7" stroke="black" points="152.27,-84.8 149.27,-88.8 128.27,-88.8 125.27,-84.8 23.73,-84.8 23.73,-48.8 152.27,-48.8 152.27,-84.8"/>
<text text-anchor="middle" x="88" y="-62.6" font-family="Times,serif" font-size="14.00">AppRoutingModule</text>
</g>
<!-- AppRoutingModule&#45;&gt;AppModule -->
<g id="edge12" class="edge">
<title>AppRoutingModule&#45;&gt;AppModule</title>
<path fill="none" stroke="black" d="M88,-85.05C88,-107.82 88,-143.8 88,-143.8 88,-143.8 861.24,-143.8 861.24,-143.8"/>
<polygon fill="black" stroke="black" points="861.24,-147.3 871.24,-143.8 861.24,-140.3 861.24,-147.3"/>
</g>
</g>
</svg>
